<?xml version="1.0" encoding="UTF-8"?><svg id="Layer_2" xmlns="http://www.w3.org/2000/svg" viewBox="0 0 32.49 30"><defs><style>.cls-1{fill:#9fbd3b;stroke-width:0px;}</style></defs><g id="Layer_1-2"><path class="cls-1" d="M31.76,16.76c.98-.98.98-2.56,0-3.54L19.26.73c-.98-.98-2.56-.98-3.54,0s-.98,2.56,0,3.54l10.73,10.73-10.72,10.73c-.98.98-.98,2.56,0,3.54.98.98,2.56.98,3.54,0l12.5-12.5h0ZM4.27,29.26l12.5-12.5c.98-.98.98-2.56,0-3.54L4.27.73C3.29-.24,1.71-.24.73.73S-.24,3.29.73,4.27l10.73,10.73L.74,25.73c-.98.98-.98,2.56,0,3.54s2.56.98,3.54,0h0Z"/></g></svg>