<?xml version="1.0" encoding="UTF-8"?><svg id="Layer_2" xmlns="http://www.w3.org/2000/svg" viewBox="0 0 30 32.49"><defs><style>.cls-1{fill:#fff;stroke-width:0px;}</style></defs><g id="Layer_1-2"><path class="cls-1" d="M13.24,31.76c.98.98,2.56.98,3.54,0l12.5-12.5c.98-.98.98-2.56,0-3.54s-2.56-.98-3.54,0l-10.73,10.73L4.27,15.73c-.98-.98-2.56-.98-3.54,0-.98.98-.98,2.56,0,3.54l12.5,12.5h0ZM.74,4.27l12.5,12.5c.98.98,2.56.98,3.54,0l12.5-12.5c.98-.98.98-2.56,0-3.54s-2.56-.98-3.54,0l-10.73,10.73L4.27.74C3.29-.24,1.71-.24.73.74S-.24,3.3.73,4.28h0Z"/></g></svg>