<?xml version="1.0" encoding="UTF-8"?><svg id="Layer_2" xmlns="http://www.w3.org/2000/svg" viewBox="0 0 32.49 30"><defs><style>.cls-1{fill:#9fbd3b;stroke-width:0px;}</style></defs><g id="Layer_1-2"><path class="cls-1" d="M.73,13.24c-.98.98-.98,2.56,0,3.54l12.5,12.5c.98.98,2.56.98,3.54,0s.98-2.56,0-3.54L6.03,15l10.72-10.73c.98-.98.98-2.56,0-3.54s-2.56-.98-3.54,0L.72,13.23h0ZM28.22.74l-12.5,12.5c-.98.98-.98,2.56,0,3.54l12.5,12.5c.98.98,2.56.98,3.54,0s.98-2.56,0-3.54l-10.73-10.73,10.72-10.73c.98-.98.98-2.56,0-3.54s-2.56-.98-3.54,0h0Z"/></g></svg>