<?xml version="1.0" encoding="UTF-8"?><svg id="Layer_2" xmlns="http://www.w3.org/2000/svg" viewBox="0 0 26.02 26.02"><defs><style>.cls-1{fill:#9fbd3b;}</style></defs><g id="Layer_1-2"><path class="cls-1" d="M20.13,13.01c0-.95-.2-1.85-.53-2.67h3.89v10.65c0,1.38-1.12,2.49-2.49,2.49H5.03c-1.38,0-2.49-1.12-2.49-2.49v-10.65h3.88c-.34.83-.52,1.73-.52,2.67,0,3.92,3.19,7.12,7.11,7.12s7.12-3.19,7.12-7.12M8.43,13.01c0-1,.32-1.92.86-2.67.83-1.15,2.18-1.91,3.71-1.91s2.88.76,3.71,1.91c.54.75.87,1.67.87,2.67,0,2.53-2.05,4.58-4.58,4.58s-4.58-2.05-4.58-4.58M18.6,3.01h3.84s.57-.01.57-.01v4.41h-4.4s-.01-4.4-.01-4.4ZM4.9,0C2.19.07,0,2.3,0,5.03v15.96c0,2.73,2.19,4.96,4.9,5.03h16.22c2.71-.07,4.9-2.3,4.9-5.03V5.03c0-2.73-2.19-4.96-4.9-5.03H4.9Z"/></g></svg>