<?xml version="1.0" encoding="UTF-8"?><svg id="Layer_2" xmlns="http://www.w3.org/2000/svg" viewBox="0 0 40.24 40.24"><defs><style>.cls-1{fill:#9fbd3b;stroke-width:0px;}</style></defs><g id="Layer_1-2"><path class="cls-1" d="M15.33,31.83c.24-1.34.48-2.72.68-4.09.79-5.4-.8-9.98-.97-10.45-1.73-3.56-4.79-5.66-9.11-6.26-1.36-.19-2.63-.19-3.68-.13-1.43,2.76-2.25,5.89-2.25,9.21,0,9.08,6.02,16.75,14.28,19.25.21-2.56.62-5.08,1.05-7.54Z"/><path class="cls-1" d="M25.38,9.32c.1.3,1.13,3.13,4.44,6.16.44.4.9.82,1.37,1.24,2.87,2.58,6.02,5.44,8.28,8.85.49-1.74.77-3.56.77-5.45,0-8.83-5.7-16.32-13.62-19.03-.53.62-2.39,3.21-1.23,8.22Z"/><path class="cls-1" d="M29.55,18.54c-.47-.42-.93-.84-1.38-1.25-4.02-3.68-5.1-7.15-5.14-7.29l-.02-.07c-1.14-4.84.12-7.94,1.11-9.52-1.29-.26-2.63-.4-4.01-.4C13.36,0,7.4,3.34,3.75,8.45c4.29.07,10.43,1.41,13.52,7.83l.04.09c.08.22,2.06,5.39,1.13,11.73-.21,1.4-.45,2.8-.69,4.16-.46,2.61-.87,5.14-1.05,7.67,1.12.19,2.26.31,3.43.31,8.11,0,15.07-4.8,18.26-11.71-2.04-3.86-5.62-7.1-8.83-9.99Z"/></g></svg>